<svg xmlns="http://www.w3.org/2000/svg" xmlnsXlink="http://www.w3.org/1999/xlink" width="22" height="12" viewBox="0 0 22 12">
    <defs>
        <path id="a" d="M11.65 5.001a5.998 5.998 0 0 0-6.88-3.88c-2.29.46-4.15 2.29-4.63 4.58a6.006 6.006 0 0 0 5.86 7.3 5.99 5.99 0 0 0 5.65-4H16v2c0 1.1.9 2 2 2s2-.9 2-2v-2c1.1 0 2-.9 2-2s-.9-2-2-2h-8.35zm-5.65 4c-1.1 0-2-.9-2-2s.9-2 2-2 2 .9 2 2-.9 2-2 2z"/>
    </defs>
    <use fill="#DFE2E6" fillRule="evenodd" transform="translate(0 -1)" xlinkHref="#a"/>
</svg>
